{"title":"Vera S06E03 - The Moth Catcher x264 RB58.mp4","uid":13544572,"size":1001435121,"categoryP":"video","categoryS":"tv_shows","magnet":"?xt=urn:btih:f4ec053d21377ff8f144954d6eb575fbd2f1045b&amp;dn=Vera+S06E03+-+The+Moth+Catcher+x264+RB58.mp4&amp;tr=udp%3A%2F%2Ftracker.leechers-paradise.org%3A6969&amp;tr=udp%3A%2F%2Fzer0day.ch%3A1337&amp;tr=udp%3A%2F%2Fopen.demonii.com%3A1337&amp;tr=udp%3A%2F%2Ftracker.coppersurfer.tk%3A6969&amp;tr=udp%3A%2F%2Fexodus.desync.com%3A6969","seeders":1,"leechers":1,"uploader":"RedBaron58","files":1,"time":1455502474,"description":"Vera S06E03 - The Moth Catcher x264 mp4\r\n \nhttp://www.imdb.com/title/tt1693592/\r\n\r\nTrailer: (Previous series)\r\n\r\n\r\nPlease be patient My intial upload speed is limited.\r\nThank you for your kind comments and feedback on my other torrents, your feedback is welcome.\r\n\r\n\r\nAbout the Episode:\r\nDCI Stanhope and her team, including new recruit DC Hicham Cherradi, travel to a remote \r\ncountry house when the woman looking after it is killed. No sooner have they arrived, \r\nthan a second body is discovered. \r\nVera discovers the two victims met the night before their deaths, and goes in search \r\nof a connection between them. Forensics evidence reveals that one was definitely present \r\nwhen the other died, but when no murder weapon or motive can be found, Vera begins to \r\nsuspect a third party was involved.\r\n\r\n\r\nI hope you enjoy.\r\n\r\n\r\nTechnical:\r\n\r\nGeneral\r\nComplete name                            : G:Vera S06E03 - The Moth Catcher x264 RB58.mp4\r\nFormat                                   : MPEG-4\r\nFormat profile                           : Base Media\r\nCodec ID                                 : isom\r\nFile size                                : 955 MiB\r\nDuration                                 : 1h 27mn\r\nOverall bit rate                         : 1 521 Kbps\r\nWriting application                      : Lavf54.63.104\r\n\r\nVideo\r\nID                                       : 1\r\nFormat                                   : AVC\r\nFormat/Info                              : Advanced Video Codec\r\nFormat profile                           :   \r\nFormat settings, CABAC                   : Yes\r\nFormat settings, ReFrames                : 4 frames\r\nCodec ID                                 : avc1\r\nCodec ID/Info                            : Advanced Video Coding\r\nDuration                                 : 1h 27mn\r\nBit rate                                 : 1 400 Kbps\r\nWidth                                    : 832 pixels\r\nHeight                                   : 468 pixels\r\nDisplay aspect ratio                     : 16:9\r\nFrame rate mode                          : Constant\r\nFrame rate                               : 25.000 fps\r\nColor space                              : YUV\r\nChroma subsampling                       : 4:2:0\r\nBit depth                                : 8 bits\r\nScan type                                : Progressive\r\nBits/(Pixel*Frame)                       : 0.144\r\nStream size                              : 879 MiB (92%)\r\nWriting library                          : x264 core 123 r2189 35cf912\r\nEncoding settings                        : cabac=1 / ref=3 / deblock=1:0:0\r\n\r\nAudio\r\nID                                       : 2\r\nFormat                                   : AAC\r\nFormat/Info                              : Advanced Audio Codec\r\nFormat profile                           : LC\r\nCodec ID                                 : 40\r\nDuration                                 : 1h 27mn\r\nBit rate mode                            : Constant\r\nBit rate                                 : 112 Kbps\r\nChannel(s)                               : 2 channels\r\nChannel positions                        : Front: L R\r\nSampling rate                            : 48.0 KHz\r\nCompression mode                         : Lossy\r\nStream size                              : 70.3 MiB (7%)","torrent":{"xt":"urn:btih:f4ec053d21377ff8f144954d6eb575fbd2f1045b","amp;dn":"Vera+S06E03+-+The+Moth+Catcher+x264+RB58.mp4","amp;tr":["udp%3A%2F%2Ftracker.leechers-paradise.org%3A6969","udp%3A%2F%2Fzer0day.ch%3A1337","udp%3A%2F%2Fopen.demonii.com%3A1337","udp%3A%2F%2Ftracker.coppersurfer.tk%3A6969","udp%3A%2F%2Fexodus.desync.com%3A6969"],"infoHash":"f4ec053d21377ff8f144954d6eb575fbd2f1045b","infoHashBuffer":{"type":"Buffer","data":[244,236,5,61,33,55,127,248,241,68,149,77,110,181,117,251,210,241,4,91]},"announce":[],"urlList":[]}}